<svg xmlns="http://www.w3.org/2000/svg" viewBox="0 0 200 200">
  <!-- Definitions -->
  <defs>
    <!-- Modern gradient -->
    <linearGradient id="primaryGradient" x1="0%" y1="0%" x2="100%" y2="100%">
      <stop offset="0%" stop-color="#7B42F6" /> <!-- Purple -->
      <stop offset="100%" stop-color="#4A6FFB" /> <!-- Indigo -->
    </linearGradient>
    
    <!-- Secondary gradient -->
    <linearGradient id="secondaryGradient" x1="100%" y1="0%" x2="0%" y2="100%">
      <stop offset="0%" stop-color="#5A5CFA" /> <!-- Blue-Indigo -->
      <stop offset="100%" stop-color="#B668FF" /> <!-- Purple-Pink -->
    </linearGradient>
    
    <!-- Pulse animation -->
    <radialGradient id="pulseGradient" cx="50%" cy="50%" r="50%">
      <stop offset="0%" stop-color="white" stop-opacity="0.7">
        <animate attributeName="stop-opacity" values="0.7;0.2;0.7" dur="3s" repeatCount="indefinite" />
      </stop>
      <stop offset="100%" stop-color="white" stop-opacity="0">
        <animate attributeName="stop-opacity" values="0;0.1;0" dur="3s" repeatCount="indefinite" />
      </stop>
    </radialGradient>
    
    <!-- Clip paths -->
    <clipPath id="screenClip">
      <path d="M40,30 L160,30 C165,30 170,35 170,40 L170,120 C170,125 165,130 160,130 L40,130 C35,130 30,125 30,120 L30,40 C30,35 35,30 40,30 Z" />
    </clipPath>
  </defs>
  
  <!-- Main Monitor/Shield Shape -->
  <path d="M40,30 L160,30 C165,30 170,35 170,40 L170,120 C170,125 165,130 160,130 L140,130 L150,150 L130,145 L120,160 L110,145 L90,150 L100,130 L40,130 C35,130 30,125 30,120 L30,40 C30,35 35,30 40,30 Z" 
        fill="url(#primaryGradient)" stroke="#5A5CFA" stroke-width="1.5" />
  
  <!-- Screen with animations -->
  <rect x="35" y="35" width="130" height="90" fill="#111133" opacity="0.85" />
  
  <!-- Grid pattern -->
  <g stroke="#4A6FFB" stroke-width="0.5" opacity="0.2" clip-path="url(#screenClip)">
    <!-- Horizontal grid lines -->
    <line x1="35" y1="50" x2="165" y2="50" />
    <line x1="35" y1="65" x2="165" y2="65" />
    <line x1="35" y1="80" x2="165" y2="80" />
    <line x1="35" y1="95" x2="165" y2="95" />
    <line x1="35" y1="110" x2="165" y2="110" />
    
    <!-- Vertical grid lines -->
    <line x1="50" y1="35" x2="50" y2="125" />
    <line x1="65" y1="35" x2="65" y2="125" />
    <line x1="80" y1="35" x2="80" y2="125" />
    <line x1="95" y1="35" x2="95" y2="125" />
    <line x1="110" y1="35" x2="110" y2="125" />
    <line x1="125" y1="35" x2="125" y2="125" />
    <line x1="140" y1="35" x2="140" y2="125" />
    <line x1="155" y1="35" x2="155" y2="125" />
  </g>
  
  <!-- Animated Scanning Wave -->
  <path d="M35,80 Q55,60 75,80 T115,80 T155,80" fill="none" stroke="url(#secondaryGradient)" stroke-width="2" clip-path="url(#screenClip)">
    <animate attributeName="d" 
             values="M35,80 Q55,60 75,80 T115,80 T155,80;
                     M35,80 Q55,100 75,80 T115,80 T155,80;
                     M35,80 Q55,60 75,80 T115,80 T155,80" 
             dur="3s" 
             repeatCount="indefinite" />
  </path>
  
  <!-- Moving dots -->
  <g clip-path="url(#screenClip)">
    <circle cx="35" cy="80" r="3" fill="white">
      <animate attributeName="cx" values="35;165;35" dur="4s" repeatCount="indefinite" />
    </circle>
    
    <circle cx="165" cy="80" r="2" fill="#B668FF">
      <animate attributeName="cx" values="165;35;165" dur="5s" repeatCount="indefinite" />
    </circle>
  </g>
  
  <!-- Eye element centered -->
  <g transform="translate(100, 80)">
    <!-- Eye shape -->
    <ellipse cx="0" cy="0" rx="20" ry="15" fill="url(#primaryGradient)" stroke="white" stroke-width="1.5" />
    
    <!-- Iris -->
    <circle cx="0" cy="0" r="12" fill="white" />
    
    <!-- Pupil with slight animation -->
    <circle cx="0" cy="0" r="8" fill="#111133">
      <animate attributeName="cx" values="-1;1;-1" dur="3s" repeatCount="indefinite" />
      <animate attributeName="cy" values="0;-1;0" dur="4s" repeatCount="indefinite" />
    </circle>
    
    <!-- Light reflection -->
    <circle cx="-4" cy="-4" r="3" fill="white" opacity="0.8" />
    
    <!-- Pulse effect -->
    <circle cx="0" cy="0" r="24" fill="url(#pulseGradient)" opacity="0.5" />
  </g>
  
  <!-- Scanning line animation -->
  <rect x="35" y="80" width="130" height="2" fill="white" opacity="0.6" clip-path="url(#screenClip)">
    <animate attributeName="y" values="40;120;40" dur="4s" repeatCount="indefinite" />
    <animate attributeName="opacity" values="0.2;0.8;0.2" dur="4s" repeatCount="indefinite" />
  </rect>
</svg>